<svg width="24" height="24" viewBox="0 0 24 24" fill="none" xmlns="http://www.w3.org/2000/svg">
<path d="M22.227 12.6819H9.0451C8.66873 12.6819 8.36328 12.3764 8.36328 12.0001C8.36328 11.6237 8.66873 11.3182 9.0451 11.3182H22.227C22.6033 11.3182 22.9088 11.6237 22.9088 12.0001C22.9088 12.3764 22.6033 12.6819 22.227 12.6819Z" fill="#FF0000"/>
<path d="M12.6812 16.318C12.5066 16.318 12.3322 16.2518 12.1993 16.1181L8.56303 12.4818C8.2967 12.2153 8.2967 11.7835 8.56303 11.5172L12.1993 7.8809C12.4657 7.61457 12.8974 7.61457 13.1639 7.8809C13.4303 8.14724 13.4303 8.57903 13.1639 8.84536L10.0094 11.9999L13.1639 15.1545C13.4303 15.4208 13.4303 15.8526 13.1639 16.1189C13.0303 16.2518 12.8557 16.318 12.6812 16.318Z" fill="#FF0000"/>
<path d="M12 22C6.48639 22 2 17.5136 2 12C2 6.48639 6.48639 2 12 2C16.1372 2 19.7899 4.48906 21.3072 8.34191C21.4454 8.6918 21.2726 9.08731 20.9227 9.2263C20.5726 9.3628 20.1771 9.19268 20.0381 8.84095C18.7281 5.51361 15.5727 3.36363 12 3.36363C7.23812 3.36363 3.36363 7.23829 3.36363 12C3.36363 16.7617 7.23812 20.6364 12 20.6364C15.5727 20.6364 18.7281 18.4864 20.0381 15.16C20.1763 14.8082 20.5718 14.6382 20.9227 14.7745C21.2726 14.9127 21.4454 15.309 21.3072 15.6591C19.7899 19.5109 16.1372 22 12 22Z" fill="#FF0000"/>
</svg>
