<svg width="25" height="24" viewBox="0 0 25 24" fill="none" xmlns="http://www.w3.org/2000/svg">
<g clip-path="url(#clip0_1215_4602)">
<mask id="mask0_1215_4602" style="mask-type:luminance" maskUnits="userSpaceOnUse" x="0" y="0" width="25" height="24">
<path d="M24.334 0H0.333984V24H24.334V0Z" fill="white"/>
</mask>
<g mask="url(#mask0_1215_4602)">
<path d="M16.834 8.6303C16.424 8.6303 16.084 8.2903 16.084 7.8803V6.5003C16.084 5.4503 15.634 4.4303 14.854 3.7203C14.064 3.0003 13.044 2.6703 11.964 2.7703C10.164 2.9403 8.58398 4.7803 8.58398 6.7003V7.6703C8.58398 8.0803 8.24398 8.4203 7.83398 8.4203C7.42398 8.4203 7.08398 8.0803 7.08398 7.6703V6.6903C7.08398 4.0003 9.25398 1.5203 11.824 1.2703C13.324 1.1303 14.764 1.6003 15.864 2.6103C16.954 3.6003 17.584 5.0203 17.584 6.5003V7.8803C17.584 8.2903 17.244 8.6303 16.834 8.6303Z" fill="#F8F8F8"/>
<path d="M15.3338 22.75H9.3338C4.7138 22.75 3.8538 20.6 3.6338 18.51L2.8838 12.52C2.7738 11.44 2.7338 9.89 3.7838 8.73C4.6838 7.73 6.1738 7.25 8.3338 7.25H16.3338C18.5038 7.25 19.9938 7.74 20.8838 8.73C21.9238 9.89 21.8938 11.44 21.7838 12.5L21.0338 18.51C20.8138 20.6 19.9538 22.75 15.3338 22.75ZM8.3338 8.75C6.6438 8.75 5.4838 9.08 4.8938 9.74C4.4038 10.28 4.2438 11.11 4.3738 12.35L5.1238 18.34C5.2938 19.94 5.7338 21.26 9.3338 21.26H15.3338C18.9338 21.26 19.3738 19.95 19.5438 18.36L20.2938 12.35C20.4238 11.13 20.2638 10.3 19.7738 9.75C19.1838 9.08 18.0238 8.75 16.3338 8.75H8.3338Z" fill="#F8F8F8"/>
<path d="M15.7541 13.1504C15.1941 13.1504 14.7441 12.7004 14.7441 12.1504C14.7441 11.6004 15.1941 11.1504 15.7441 11.1504C16.2941 11.1504 16.7441 11.6004 16.7441 12.1504C16.7441 12.7004 16.3041 13.1504 15.7541 13.1504Z" fill="#F8F8F8"/>
<path d="M8.75414 13.1504C8.19414 13.1504 7.74414 12.7004 7.74414 12.1504C7.74414 11.6004 8.19414 11.1504 8.74414 11.1504C9.29414 11.1504 9.74414 11.6004 9.74414 12.1504C9.74414 12.7004 9.30414 13.1504 8.75414 13.1504Z" fill="#F8F8F8"/>
</g>
</g>
<defs>
<clipPath id="clip0_1215_4602">
<rect width="24" height="24" fill="white" transform="translate(0.333984)"/>
</clipPath>
</defs>
</svg>
