<svg width="25" height="24" viewBox="0 0 25 24" fill="none" xmlns="http://www.w3.org/2000/svg">
<path d="M9.89648 2.59961C10.6697 2.59961 11.2969 3.2268 11.2969 4V9.23047C11.2969 10.0037 10.6697 10.6309 9.89648 10.6309H4.66602C3.89282 10.6309 3.26562 10.0037 3.26562 9.23047V2.59961H9.89648Z" stroke="#F8F8F8" stroke-width="1.2"/>
<path d="M4.66602 13.3688H9.89648C10.6697 13.3688 11.2969 13.996 11.2969 14.7692V19.9996C11.2969 20.7728 10.6697 21.4 9.89648 21.4H3.26562V14.7692C3.26562 13.996 3.89282 13.3688 4.66602 13.3688Z" stroke="#F8F8F8" stroke-width="1.2"/>
<path d="M15.4355 2.59961H22.0664V9.23047C22.0664 10.0037 21.4392 10.6309 20.666 10.6309H15.4355C14.6623 10.6309 14.0352 10.0037 14.0352 9.23047V4C14.0352 3.2268 14.6623 2.59961 15.4355 2.59961Z" stroke="#F8F8F8" stroke-width="1.2"/>
<path d="M15.4355 13.3688H20.666C21.4392 13.3688 22.0664 13.996 22.0664 14.7692V21.4H15.4355C14.6623 21.4 14.0352 20.7728 14.0352 19.9996V14.7692C14.0352 13.996 14.6623 13.3688 15.4355 13.3688Z" stroke="#F8F8F8" stroke-width="1.2"/>
</svg>
